<svg class="animated" id="freepik_stories-dumbbell-exercise" xmlns="http://www.w3.org/2000/svg" viewBox="0 0 500 500" version="1.1" xmlns:xlink="http://www.w3.org/1999/xlink" xmlns:svgjs="http://svgjs.com/svgjs"><style>svg#freepik_stories-dumbbell-exercise:not(.animated) .animable {opacity: 0;}svg#freepik_stories-dumbbell-exercise.animated #freepik--background-simple--inject-2 {animation: 1.5s Infinite  linear heartbeat;animation-delay: 0s;}svg#freepik_stories-dumbbell-exercise.animated #freepik--Character--inject-2 {animation: 1.5s Infinite  linear heartbeat;animation-delay: 0s;}            @keyframes heartbeat {                0% {                    transform: scale(1);                }                10% {                    transform: scale(1.1);                }                30% {                    transform: scale(1);                }                40% {                    transform: scale(1);                }                50% {                    transform: scale(1.1);                }                60% {                    transform: scale(1);                }                100% {                    transform: scale(1);                }            }        </style><g id="freepik--background-simple--inject-2" class="animable" style="transform-origin: 249.883px 251.753px;"><g id="elc2yz4smcyb8" class="animable" style="transform-origin: 249.883px 251.753px;"><path d="M451.31,118.12c-1.65-2.74-3.36-5.43-5.14-8.06-23.81-34.98-63.44-58.93-101.95-69.77-16.87-4.76-34.2-7.25-51.49-7.88-113.43-4.12-155.1,89.4-191.65,113.52C64.53,170.04,8.45,211.23,15.49,297.76c5.34,65.79,42.76,128.69,111.11,157.31,7.53,3.16,15.44,5.91,23.72,8.19,15.41,4.24,32.1,6.9,50.1,7.7,51.68,2.3,93.64-10.15,134.68-41.52,9.54-7.29,19.03-15.52,31.41-16.42,9-.65,17.53,2.58,8.12,11.28-11.06,10.22,1.7,30.33,29.77,16.36,46.87-23.33,66.16-73.66,75.24-124.84,11.15-62.82,5.75-140.95-28.33-197.68Z" style="fill: rgb(16, 178, 61); transform-origin: 249.883px 251.753px;" id="elw4703xmqeca" class="animable"></path><g id="eldb5gkr3q4q8"><path d="M451.31,118.12c-1.65-2.74-3.36-5.43-5.14-8.06-23.81-34.98-63.44-58.93-101.95-69.77-16.87-4.76-34.2-7.25-51.49-7.88-113.43-4.12-155.1,89.4-191.65,113.52C64.53,170.04,8.45,211.23,15.49,297.76c5.34,65.79,42.76,128.69,111.11,157.31,7.53,3.16,15.44,5.91,23.72,8.19,15.41,4.24,32.1,6.9,50.1,7.7,51.68,2.3,93.64-10.15,134.68-41.52,9.54-7.29,19.03-15.52,31.41-16.42,9-.65,17.53,2.58,8.12,11.28-11.06,10.22,1.7,30.33,29.77,16.36,46.87-23.33,66.16-73.66,75.24-124.84,11.15-62.82,5.75-140.95-28.33-197.68Z" style="fill: rgb(255, 255, 255); opacity: 0.7; transform-origin: 249.883px 251.753px;" class="animable"></path></g></g></g><g id="freepik--Pictures--inject-2" class="animable" style="transform-origin: 226.06px 105.445px;"><g id="elq5r2l3qw2bb"><g style="opacity: 0.3; transform-origin: 74.885px 105.445px;" class="animable"><rect x="31.06" y="42.33" width="87.65" height="126.23" style="fill: none; stroke: rgb(0, 0, 0); stroke-linecap: round; stroke-linejoin: round; transform-origin: 74.885px 105.445px;" id="elqg0rv6irj1" class="animable"></rect><rect x="60.17" y="84.24" width="29.45" height="42.41" style="fill: none; stroke: rgb(0, 0, 0); stroke-linecap: round; stroke-linejoin: round; transform-origin: 74.895px 105.445px;" id="eloiotzfku5c" class="animable"></rect></g></g><g id="elxt0rbwysgc"><g style="opacity: 0.3; transform-origin: 394.675px 80.325px;" class="animable"><rect x="368.29" y="50.57" width="52.77" height="59.51" style="fill: none; stroke: rgb(0, 0, 0); stroke-linecap: round; stroke-linejoin: round; transform-origin: 394.675px 80.325px;" id="elj4rd5babxni" class="animable"></rect><rect x="385.81" y="70.33" width="17.73" height="20" style="fill: none; stroke: rgb(0, 0, 0); stroke-linecap: round; stroke-linejoin: round; transform-origin: 394.675px 80.33px;" id="elb9epffoo78s" class="animable"></rect></g></g></g><g id="freepik--Furniture--inject-2" class="animable" style="transform-origin: 244.2px 290.14px;"><g id="el80fekubzkcm"><g style="opacity: 0.3; transform-origin: 244.2px 290.14px;" class="animable"><polyline points="44.82 387.89 348.04 387.89 348.04 191.13 443.58 191.13 443.58 453.48" style="fill: none; stroke: rgb(0, 0, 0); stroke-linecap: round; stroke-linejoin: round; transform-origin: 244.2px 322.305px;" id="elqyl0p4wwrcp" class="animable"></polyline><rect x="353.08" y="195.06" width="85.26" height="61" style="fill: none; stroke: rgb(0, 0, 0); stroke-linecap: round; stroke-linejoin: round; transform-origin: 395.71px 225.56px;" id="elhmnfvsdcuqb" class="animable"></rect><rect x="353.08" y="261.31" width="85.26" height="61" style="fill: none; stroke: rgb(0, 0, 0); stroke-linecap: round; stroke-linejoin: round; transform-origin: 395.71px 291.81px;" id="el3g2rqjpxg3k" class="animable"></rect><rect x="353.08" y="327.55" width="85.26" height="61" style="fill: none; stroke: rgb(0, 0, 0); stroke-linecap: round; stroke-linejoin: round; transform-origin: 395.71px 358.05px;" id="elp8k61am24v" class="animable"></rect><rect x="393.58" y="200.61" width="14.12" height="55.39" style="fill: none; stroke: rgb(0, 0, 0); stroke-linecap: round; stroke-linejoin: round; transform-origin: 400.64px 228.305px;" id="elrhf4jmlpxlf" class="animable"></rect><rect x="393.58" y="333.36" width="14.12" height="55.39" style="fill: none; stroke: rgb(0, 0, 0); stroke-linecap: round; stroke-linejoin: round; transform-origin: 400.64px 361.055px;" id="elc0hsf1zw8q" class="animable"></rect><rect x="407.51" y="333.36" width="14.12" height="55.39" style="fill: none; stroke: rgb(0, 0, 0); stroke-linecap: round; stroke-linejoin: round; transform-origin: 414.57px 361.055px;" id="el9200ahl9ko4" class="animable"></rect><rect x="421.44" y="333.36" width="14.12" height="55.39" style="fill: none; stroke: rgb(0, 0, 0); stroke-linecap: round; stroke-linejoin: round; transform-origin: 428.5px 361.055px;" id="el2k8atkx8kgf" class="animable"></rect><g id="eltpt3gwxvmun"><rect x="371.86" y="199.19" width="14.17" height="55.57" style="fill: none; stroke: rgb(0, 0, 0); stroke-linecap: round; stroke-linejoin: round; transform-origin: 378.945px 226.975px; transform: rotate(15.1deg);" class="animable"></rect></g><g id="eldac8izfasgq"><rect x="360.67" y="331.61" width="14.17" height="55.57" style="fill: none; stroke: rgb(0, 0, 0); stroke-linecap: round; stroke-linejoin: round; transform-origin: 367.755px 359.395px; transform: rotate(164.9deg);" class="animable"></rect></g><rect x="408.26" y="200.61" width="14.12" height="55.39" style="fill: none; stroke: rgb(0, 0, 0); stroke-linecap: round; stroke-linejoin: round; transform-origin: 415.32px 228.305px;" id="elpzi9hznxqum" class="animable"></rect><rect x="422.94" y="200.61" width="14.12" height="55.39" style="fill: none; stroke: rgb(0, 0, 0); stroke-linecap: round; stroke-linejoin: round; transform-origin: 430px 228.305px;" id="elmhwzklxf1jr" class="animable"></rect><g id="el8bwde5hii4f" class="animable" style="transform-origin: 402.855px 313.665px;"><g id="ell5dmrnuayy" class="animable" style="transform-origin: 402.855px 313.665px;"><path d="M436.8,313.66c0,4.74-3.85,8.6-8.59,8.6h-57.8c-.83,0-1.5-.68-1.5-1.5s.67-1.5,1.5-1.5h57.8c3.08,0,5.59-2.51,5.59-5.6s-2.51-5.59-5.59-5.59h-57.8c-.83,0-1.5-.67-1.5-1.5s.67-1.5,1.5-1.5h57.8c4.74,0,8.59,3.85,8.59,8.59Z" style="fill: none; stroke: rgb(0, 0, 0); stroke-linecap: round; stroke-linejoin: round; transform-origin: 402.855px 313.665px;" id="elkrdublrwuo" class="animable"></path><path d="M412.3,311.01v5.23c0,1.17-.45,2.23-1.18,3.02h-39.14c.73-.79,1.18-1.85,1.18-3.02v-5.23c0-1.13-.42-2.16-1.12-2.94h39.14c.7,.78,1.12,1.81,1.12,2.94Z" style="fill: none; stroke: rgb(0, 0, 0); stroke-linecap: round; stroke-linejoin: round; transform-origin: 392.14px 313.665px;" id="el8ihtuvfy93p" class="animable"></path><path d="M433.8,313.66c0,3.09-2.51,5.6-5.59,5.6h-17.09c.73-.79,1.18-1.85,1.18-3.02v-5.23c0-1.13-.42-2.16-1.12-2.94h17.03c3.08,0,5.59,2.51,5.59,5.59Z" style="fill: none; stroke: rgb(0, 0, 0); stroke-linecap: round; stroke-linejoin: round; transform-origin: 422.46px 313.665px;" id="elzcois2y8kzb" class="animable"></path></g><path d="M410.74,305.25s-1.27,.25-1.14,1.4c.13,1.14,1.59,1.43,1.59,1.43" style="fill: none; stroke: rgb(0, 0, 0); stroke-linecap: round; stroke-linejoin: round; transform-origin: 410.39px 306.665px;" id="elxwy1j7n512" class="animable"></path><path d="M410.65,319.23s-1.17,.27-1.06,1.5,1.47,1.53,1.47,1.53" style="fill: none; stroke: rgb(0, 0, 0); stroke-linecap: round; stroke-linejoin: round; transform-origin: 410.321px 320.745px;" id="elxiaindzuaur" class="animable"></path></g><g id="elbkb5sj6zha6" class="animable" style="transform-origin: 402.855px 296.435px;"><g id="ellz2wyy37m5g" class="animable" style="transform-origin: 402.855px 296.435px;"><path d="M436.8,296.43c0,4.74-3.85,8.6-8.59,8.6h-57.8c-.83,0-1.5-.68-1.5-1.5s.67-1.5,1.5-1.5h57.8c3.08,0,5.59-2.51,5.59-5.6s-2.51-5.59-5.59-5.59h-57.8c-.83,0-1.5-.67-1.5-1.5s.67-1.5,1.5-1.5h57.8c4.74,0,8.59,3.85,8.59,8.59Z" style="fill: none; stroke: rgb(0, 0, 0); stroke-linecap: round; stroke-linejoin: round; transform-origin: 402.855px 296.435px;" id="el8e9wmwkxdwc" class="animable"></path><path d="M412.3,293.78v5.23c0,1.17-.45,2.23-1.18,3.02h-39.14c.73-.79,1.18-1.85,1.18-3.02v-5.23c0-1.13-.42-2.16-1.12-2.94h39.14c.7,.78,1.12,1.81,1.12,2.94Z" style="fill: none; stroke: rgb(0, 0, 0); stroke-linecap: round; stroke-linejoin: round; transform-origin: 392.14px 296.435px;" id="elh14p05ji7r" class="animable"></path><path d="M433.8,296.43c0,3.09-2.51,5.6-5.59,5.6h-17.09c.73-.79,1.18-1.85,1.18-3.02v-5.23c0-1.13-.42-2.16-1.12-2.94h17.03c3.08,0,5.59,2.51,5.59,5.59Z" style="fill: none; stroke: rgb(0, 0, 0); stroke-linecap: round; stroke-linejoin: round; transform-origin: 422.46px 296.435px;" id="elstzb5p4471" class="animable"></path></g><path d="M410.74,288.01s-1.27,.25-1.14,1.4c.13,1.14,1.59,1.43,1.59,1.43" style="fill: none; stroke: rgb(0, 0, 0); stroke-linecap: round; stroke-linejoin: round; transform-origin: 410.39px 289.425px;" id="el2wxbe55q3ga" class="animable"></path><path d="M410.65,302s-1.17,.27-1.06,1.5c.12,1.23,1.47,1.53,1.47,1.53" style="fill: none; stroke: rgb(0, 0, 0); stroke-linecap: round; stroke-linejoin: round; transform-origin: 410.321px 303.515px;" id="elhaoilyveys" class="animable"></path></g><g id="elwknass40cs" class="animable" style="transform-origin: 373.375px 158.93px;"><polygon points="387.15 163.57 361.02 163.57 363.63 191.06 384.54 191.06 387.15 163.57" style="fill: none; stroke: rgb(0, 0, 0); stroke-linecap: round; stroke-linejoin: round; transform-origin: 374.085px 177.315px;" id="elipogjzquiqe" class="animable"></polygon><polygon points="365.18 163.39 385.55 163.39 390.07 156.07 383.9 161.33 389.16 146.24 382.52 153.1 384.81 143.26 380.92 149.67 381.61 138.69 376.81 154.24 375.2 135.26 372.92 147.38 370.63 126.8 369.26 145.09 365.83 132.28 369.26 159.73 360.34 140.29 364.91 159.73 356.68 152.87 365.18 163.39" style="fill: none; stroke: rgb(0, 0, 0); stroke-linecap: round; stroke-linejoin: round; transform-origin: 373.375px 145.095px;" id="el7p81ow5i1vs" class="animable"></polygon></g><rect x="353.7" y="398.08" width="84.39" height="45.97" style="fill: none; stroke: rgb(0, 0, 0); stroke-linecap: round; stroke-linejoin: round; transform-origin: 395.895px 421.065px;" id="elr0d70xytd9q" class="animable"></rect><rect x="165.06" y="398.08" width="182.42" height="45.97" style="fill: none; stroke: rgb(0, 0, 0); stroke-linecap: round; stroke-linejoin: round; transform-origin: 256.27px 421.065px;" id="elod19nq7vswr" class="animable"></rect><rect x="49.33" y="398.08" width="109.53" height="45.97" style="fill: none; stroke: rgb(0, 0, 0); stroke-linecap: round; stroke-linejoin: round; transform-origin: 104.095px 421.065px;" id="elunamnqcqxnq" class="animable"></rect><rect x="389.27" y="419.47" width="13.52" height="3.64" style="fill: none; stroke: rgb(0, 0, 0); stroke-linecap: round; stroke-linejoin: round; transform-origin: 396.03px 421.29px;" id="elqze99xm1jw" class="animable"></rect></g></g></g><g id="freepik--TV--inject-2" class="animable" style="transform-origin: 186.81px 312.415px;"><g id="elzwnomudu2oc"><g style="opacity: 0.3; transform-origin: 186.81px 312.415px;" class="animable"><g id="eloteypw2o1t" class="animable" style="transform-origin: 186.81px 306.89px;"><rect x="56.62" y="237.04" width="260.38" height="139.7" style="fill: none; stroke: rgb(0, 0, 0); stroke-linecap: round; stroke-linejoin: round; transform-origin: 186.81px 306.89px;" id="elb1xbuzlt47s" class="animable"></rect><rect x="61.33" y="240.96" width="250.96" height="131.85" style="fill: none; stroke: rgb(0, 0, 0); stroke-linecap: round; stroke-linejoin: round; transform-origin: 186.81px 306.885px;" id="elta6d5n7iblr" class="animable"></rect></g><polygon points="64.73 376.84 62.14 387.79 67.04 387.79 70.49 376.84 64.73 376.84" style="fill: none; stroke: rgb(0, 0, 0); stroke-linecap: round; stroke-linejoin: round; transform-origin: 66.315px 382.315px;" id="elqvygilostfd" class="animable"></polygon><polygon points="309.96 376.84 312.54 387.79 307.64 387.79 304.19 376.84 309.96 376.84" style="fill: none; stroke: rgb(0, 0, 0); stroke-linecap: round; stroke-linejoin: round; transform-origin: 308.365px 382.315px;" id="elsitlgq5i5m" class="animable"></polygon></g></g></g><g id="freepik--Character--inject-2" class="animable animator-active" style="transform-origin: 255.807px 260.623px;"><g id="elq5yinezeulj" class="animable" style="transform-origin: 255.807px 260.623px;"><g id="ele7e1xidsul" class="animable" style="transform-origin: 319.604px 363.267px;"><g id="el6jq4yf5jwg" class="animable" style="transform-origin: 357.45px 401.075px;"><path d="M362.16,382.25l-20.61,6.23,11.18,31.41,20.61-6.23c2.36-.84,1.77-8.55-1.32-17.23-3.09-8.67-7.5-15.02-9.86-14.18Z" style="fill: rgb(16, 178, 61); stroke: rgb(38, 50, 56); stroke-linecap: round; stroke-linejoin: round; transform-origin: 358.168px 401.033px;" id="el2dfsyk9cbxx" class="animable"></path><path d="M351.42,402.67c3.09,8.67,3.68,16.39,1.32,17.23-2.36,.84-6.78-5.51-9.86-14.18-3.09-8.67-3.68-16.39-1.32-17.23,2.36-.84,6.78,5.51,9.86,14.18Z" style="fill: rgb(38, 50, 56); stroke: rgb(38, 50, 56); stroke-linecap: round; stroke-linejoin: round; transform-origin: 347.15px 404.195px;" id="el0j49sloui50q" class="animable"></path></g><path d="M278.17,292.86l3.34,18.35s11.68,17.52,17.8,31.7c6.12,14.18,22.25,32.54,25.31,35.04,3.06,2.5,11.96,7.79,14.18,11.4,2.22,3.61,6.95,15.02,6.95,15.02l-22.8,8.9s-4.45-4.73-6.67-11.4c-2.22-6.67-3.61-11.96-3.61-11.96,0,0-21.97-16.41-29.2-21.69-7.23-5.28-9.45-8.06-9.45-8.06,0,0-8.06-37.54-9.45-47s7.23-19.19,13.63-20.3Z" style="fill: rgb(255, 255, 255); stroke: rgb(38, 50, 56); stroke-linecap: round; stroke-linejoin: round; transform-origin: 305.085px 353.065px;" id="elj4w7hxmb5nd" class="animable"></path><g id="el2cx31sel36m" class="animable" style="transform-origin: 335.577px 407.839px;"><path d="M344.72,398.73s4.85,10.71,4.45,12.12c-.4,1.41-4.04,2.42-5.66,2.02-1.62-.4-4.24-11.52-4.24-12.12s3.23-3.84,5.46-2.02Z" style="fill: rgb(255, 255, 255); stroke: rgb(38, 50, 56); stroke-linecap: round; stroke-linejoin: round; transform-origin: 344.232px 405.57px;" id="ela4c6jdch8ul" class="animable"></path><path d="M338.05,401.15s4.85,10.71,4.44,12.12c-.4,1.41-4.04,2.42-5.66,2.02-1.62-.4-4.24-11.52-4.24-12.12s3.23-3.84,5.46-2.02Z" style="fill: rgb(255, 255, 255); stroke: rgb(38, 50, 56); stroke-linecap: round; stroke-linejoin: round; transform-origin: 337.552px 407.99px;" id="ely8eu6hjar2" class="animable"></path><path d="M331.78,403.53s4.42,9.77,4.05,11.05c-.37,1.29-3.68,2.21-5.16,1.84-1.47-.37-3.87-10.5-3.87-11.06s2.95-3.5,4.97-1.84Z" style="fill: rgb(255, 255, 255); stroke: rgb(38, 50, 56); stroke-linecap: round; stroke-linejoin: round; transform-origin: 331.326px 409.76px;" id="elyder09x0z2o" class="animable"></path><path d="M326.47,405.71s4.01,8.86,3.68,10.04c-.33,1.17-3.34,2.01-4.68,1.67s-3.51-9.53-3.51-10.03,2.68-3.18,4.52-1.67Z" style="fill: rgb(255, 255, 255); stroke: rgb(38, 50, 56); stroke-linecap: round; stroke-linejoin: round; transform-origin: 326.065px 411.38px;" id="el6ohtyxwjhz4" class="animable"></path></g><g id="elgvnnk2pstsm" class="animable" style="transform-origin: 335.165px 394.301px;"><path d="M324.52,383.17s2.22-1.01,5.25-.81c3.03,.2,11.52,2.63,12.73,4.24,1.21,1.62,4.24,12.73,3.03,13.54-1.21,.81-13.74,5.46-15.56,6.06-1.82,.61-2.22-3.03-1.21-4.65,1.01-1.62,3.64-3.03,3.64-3.03,0,0-5.25-.4-7.27-3.64" style="fill: rgb(255, 255, 255); stroke: rgb(38, 50, 56); stroke-linecap: round; stroke-linejoin: round; transform-origin: 335.165px 394.301px;" id="elg7ied30sxk9" class="animable"></path><path d="M340.68,395.7c-3.43-.61-8.28,2.83-8.28,2.83,0,0,3.03-5.46,5.25-6.26" style="fill: none; stroke: rgb(38, 50, 56); stroke-linecap: round; stroke-linejoin: round; transform-origin: 336.54px 395.4px;" id="elrk45ykug7t" class="animable"></path></g><g id="elcstrl5uq77r" class="animable" style="transform-origin: 309.037px 414.775px;"><path d="M313.75,395.95l-20.61,6.23,11.18,31.41,20.61-6.23c2.36-.84,1.77-8.55-1.32-17.23s-7.5-15.02-9.86-14.18Z" style="fill: rgb(16, 178, 61); stroke: rgb(38, 50, 56); stroke-linecap: round; stroke-linejoin: round; transform-origin: 309.758px 414.733px;" id="elf9x30tz3zur" class="animable"></path><path d="M303,416.37c3.09,8.67,3.68,16.39,1.32,17.23-2.36,.84-6.78-5.51-9.86-14.18s-3.68-16.39-1.32-17.23c2.36-.84,6.78,5.51,9.86,14.18Z" style="fill: rgb(38, 50, 56); stroke: rgb(38, 50, 56); stroke-linecap: round; stroke-linejoin: round; transform-origin: 298.732px 417.895px;" id="el24pwzk6meyl" class="animable"></path></g></g><g id="eldgffclje40a" class="animable" style="transform-origin: 226.064px 400.615px;"><path d="M306.05,460.33l-19.26-56.24s-2.22-18.91-3.34-32.81c-1.11-13.9-8.62-29.48-8.62-29.48,0,0-12.79,12.24-37.26,16.96-24.47,4.73-55.89-10.85-62.29-14.46l-6.4-3.61s-23.08,38.37-22.8,68.13c.28,29.75,8.9,51.72,8.9,51.72" style="fill: rgb(38, 50, 56); stroke: rgb(38, 50, 56); stroke-linecap: round; stroke-linejoin: round; transform-origin: 226.064px 400.615px;" id="eljug43nmyr7q" class="animable"></path><g id="elqgkoahnr5mp" class="animable" style="transform-origin: 240.63px 443.99px;"><line x1="230.62" y1="429.11" x2="235.62" y2="460.54" style="fill: none; stroke: rgb(140, 140, 140); stroke-linecap: round; stroke-linejoin: round; transform-origin: 233.12px 444.825px;" id="elb7x94j0ad9j" class="animable"></line><line x1="233.4" y1="443.02" x2="250.64" y2="427.44" style="fill: none; stroke: rgb(140, 140, 140); stroke-linecap: round; stroke-linejoin: round; transform-origin: 242.02px 435.23px;" id="elzclr0ar5mbc" class="animable"></line></g></g><path d="M270.99,314.92s5.51,14.09,5.51,21.59-3.34,13.07-14.46,19.74c-11.12,6.67-33.93,9.45-53.67,6.4-19.74-3.06-38.37-15.57-39.49-21.97s7.92-23.48,7.92-23.48c0,0,62.82,5.04,94.19-2.28Z" style="fill: rgb(255, 255, 255); stroke: rgb(38, 50, 56); stroke-linecap: round; stroke-linejoin: round; transform-origin: 222.642px 339.402px;" id="elmajzjtp3oe" class="animable"></path><g id="el0csszogsxz67" class="animable" style="transform-origin: 216.106px 239.698px;"><path d="M247.38,196.62s17.01-1.02,24.88,14.22,5.08,56.36,5.08,56.36c0,0-26.66-49.25-28.43-56.87-1.78-7.62-1.52-13.71-1.52-13.71Z" style="fill: rgb(255, 255, 255); stroke: rgb(38, 50, 56); stroke-linecap: round; stroke-linejoin: round; transform-origin: 262.598px 231.903px;" id="elpfbslbk0nd" class="animable"></path><path d="M204.73,155.74s-2.79,30.46-5.84,35.8c-3.05,5.33-27.93,13.46-42.4,27.16-14.47,13.71-4.06,52.04-.25,65.5,3.81,13.46,20.56,33,20.56,33,0,0,12.69,7.36,46.71,6.35,34.02-1.02,47.22-6.85,47.47-8.63,.25-1.78-.25-6.09-.25-6.09,0,0,9.65-8.89,11.93-21.07,2.28-12.19-3.39-30.14-11.42-40.87-5.42-7.24-15.23-28.94-18.79-35.8-3.55-6.85-5.08-14.47-5.08-14.47,0,0-8.38-.76-9.65-3.81-1.27-3.05,.51-11.42,.51-11.42,0,0-6.85,3.05-33.51-25.64Z" style="fill: rgb(255, 255, 255); stroke: rgb(38, 50, 56); stroke-linecap: round; stroke-linejoin: round; transform-origin: 216.106px 239.693px;" id="elsuww3th972e" class="animable"></path><path d="M217.21,176.73s1.74,5.52,7.55,10.75c5.81,5.23,12.97,5.33,12.97,5.33l.51-11.42-21.03-4.66Z" style="fill: rgb(38, 50, 56); stroke: rgb(38, 50, 56); stroke-linecap: round; stroke-linejoin: round; transform-origin: 227.725px 184.77px;" id="elepxi87xcjg" class="animable"></path><g id="elky80b1tqyuc" class="animable" style="transform-origin: 224.922px 259.528px;"><path d="M252.46,211.09c-3.55-6.85-5.08-14.47-5.08-14.47,0,0-3.16-.29-5.89-1.22,.55,3,2.48,11.28,8.94,26.35,8.38,19.55,12.33,22.52,12.87,31.01,.97,15.13-12.31,22.09-30.59,18.03-18.28-4.06-25.44-18.58-28.49-27.72-3.05-9.14-5.59-14.72-9.9-25.89-2.62-6.79-5.98-13.64-7.41-17.77-3.2,1.67-6.8,3.52-10.49,5.56,2.75,3.22,11.46,14.53,18.41,35.83,8.38,25.64-15.23,56.87-24.37,61.18-1.45,.68-2.68,1.34-3.77,1.96,5.14,7.46,10.12,13.27,10.12,13.27,0,0,12.69,7.36,46.71,6.35,34.02-1.02,47.22-6.85,47.47-8.63,.25-1.78-.25-6.09-.25-6.09,0,0,9.65-8.89,11.93-21.07,2.28-12.19-3.81-31.73-11.42-40.87-5.79-6.94-15.23-28.94-18.79-35.8Z" style="fill: rgb(16, 178, 61); stroke: rgb(38, 50, 56); stroke-linecap: round; stroke-linejoin: round; transform-origin: 224.922px 259.528px;" id="el57kfcbqp423" class="animable"></path><path d="M237.24,196.92l.94,6.9s5.02,.63,10.35-1.88" style="fill: none; stroke: rgb(38, 50, 56); stroke-linecap: round; stroke-linejoin: round; transform-origin: 242.885px 200.405px;" id="elk463sduei7b" class="animable"></path><path d="M197.41,212.29s16.93-3.76,19.44-4.08,5.96,.31,5.96,.31" style="fill: none; stroke: rgb(38, 50, 56); stroke-linecap: round; stroke-linejoin: round; transform-origin: 210.11px 210.205px;" id="elo1cqigqmibo" class="animable"></path><g id="el7l1aptbtqh9" class="animable" style="transform-origin: 242.42px 311.39px;"><path d="M218.4,312.86c8.23,.41,27.14,.46,46.62-5.71" style="fill: none; stroke: rgb(38, 50, 56); stroke-linecap: round; stroke-linejoin: round; transform-origin: 241.71px 310.083px;" id="el75t7l3mu1s9" class="animable"></path><path d="M214.1,312.54s.83,.09,2.35,.2" style="fill: none; stroke: rgb(38, 50, 56); stroke-linecap: round; stroke-linejoin: round; transform-origin: 215.275px 312.64px;" id="el8k3vm73k79g" class="animable"></path><path d="M248.32,314.7c-2.78,.42-5.72,.75-8.76,.93" style="fill: none; stroke: rgb(38, 50, 56); stroke-linecap: round; stroke-linejoin: round; transform-origin: 243.94px 315.165px;" id="elk85mguobb4" class="animable"></path><path d="M270.74,308.83s-7.98,3.3-19.33,5.36" style="fill: none; stroke: rgb(38, 50, 56); stroke-linecap: round; stroke-linejoin: round; transform-origin: 261.075px 311.51px;" id="el78c01bx8snn" class="animable"></path></g></g></g><g id="elp7lromixht8" class="animable" style="transform-origin: 227.377px 123.483px;"><path d="M242.06,82.71s-1.94-9.89-12.41-17.46c-10.47-7.56-29.67-3.88-32.97-1.75-3.3,2.13-5.43,5.24-5.43,5.24l11.06,.97s-15.71,3.49-19.98,11.06c-4.27,7.56-3.1,12.41-3.1,12.41l5.24-3.1s-6.98,9.31-4.46,20.17c2.52,10.86,20.95,22.5,31.03,18.23,10.09-4.27,14.16-29.09,18.62-32.97,4.46-3.88,11.44-4.27,12.22-6.01,.78-1.75,.19-6.79,.19-6.79Z" style="fill: rgb(38, 50, 56); stroke: rgb(38, 50, 56); stroke-linecap: round; stroke-linejoin: round; transform-origin: 210.684px 95.0457px;" id="elprdufdvcqo" class="animable"></path><path d="M262.25,129.91s-4.58,13.77-.98,30.35c3.6,16.59-3.08,23.45-6.49,25.06-3.41,1.61-4.39,.66-4.39,.66,0,0,6.44-2.29,7.96-7.98s1-14.42,1-14.42c0,0-4.23,12.26-6.59,17.33s-5.57,4.84-5.57,4.84c0,0,12.79-15.05,9.69-29.5s5.37-26.34,5.37-26.34Z" style="fill: rgb(38, 50, 56); stroke: rgb(38, 50, 56); stroke-linecap: round; stroke-linejoin: round; transform-origin: 254.747px 158.084px;" id="elyufxg03nik" class="animable"></path><g id="eld6p2ases9fl" class="animable" style="transform-origin: 235.012px 134.208px;"><path d="M201.34,121.3s3.17-28.71,23.08-36.07c19.39-7.18,39.18-.39,47.13,13.77,7.95,14.16,2.33,30.26,.19,37.82s-6.59,12.22-6.59,15.13-.19,9.31-2.72,13.38c-2.52,4.07-16.87,15.9-21.14,18.23s-10.67,4.07-16.29,.39-21.33-17.65-22.69-26.76c-1.36-9.12-1.55-21.92-1.55-21.92l.58-13.96Z" style="fill: rgb(255, 255, 255); stroke: rgb(38, 50, 56); stroke-linecap: round; stroke-linejoin: round; transform-origin: 238.216px 134.208px;" id="el2ozvbru06o9" class="animable"></path><path d="M271.54,99c-7.95-14.16-27.73-20.95-47.13-13.77-19.91,7.37-23.08,36.07-23.08,36.07l-.2,4.7,2.91,.73s5.24-1.75,6.4-5.04,4.08-6.77,7.56-8.73c4.85-2.72,7.51-6.16,8.34-11.25,1.36-8.34,10.47-10.09,21.14-5.62,10.67,4.46,10.66,5.24,18.81,5.24,4.74,0,8.45,5.93,9.35,15.26,.12-5.71-.87-11.81-4.11-17.59Z" style="fill: rgb(38, 50, 56); stroke: rgb(38, 50, 56); stroke-linecap: round; stroke-linejoin: round; transform-origin: 238.39px 104.534px;" id="elccbgoxio4ij" class="animable"></path><path d="M242.84,131.97s-4.65-6.59-15.52-5.24" style="fill: none; stroke: rgb(38, 50, 56); stroke-linecap: round; stroke-linejoin: round; stroke-width: 2px; transform-origin: 235.08px 129.259px;" id="elgvtvxhnycz4" class="animable"></path><path d="M227.32,136.62s2.72,4.65,10.86,3.88" style="fill: none; stroke: rgb(38, 50, 56); stroke-linecap: round; stroke-linejoin: round; transform-origin: 232.75px 138.603px;" id="elipfx4fi9plo" class="animable"></path><path d="M252.93,136.82s7.76-1.94,11.25,5.24" style="fill: none; stroke: rgb(38, 50, 56); stroke-linecap: round; stroke-linejoin: round; stroke-width: 2px; transform-origin: 258.555px 139.321px;" id="eltxo8p55qc97" class="animable"></path><path d="M251.18,144.58s1.94,4.46,10.09,4.46" style="fill: none; stroke: rgb(38, 50, 56); stroke-linecap: round; stroke-linejoin: round; transform-origin: 256.225px 146.81px;" id="el7cp06vgsxy8" class="animable"></path><path d="M251.37,136.43s-4.65,2.13-4.85,4.27c-.19,2.13,.39,12.8-.19,14.35-.58,1.55-5.43,2.91-8.53-1.36" style="fill: none; stroke: rgb(38, 50, 56); stroke-linecap: round; stroke-linejoin: round; transform-origin: 244.585px 146.491px;" id="elz9y6canhxsh" class="animable"></path><path d="M227.32,154.86s4.07,8.53,14.35,9.31" style="fill: none; stroke: rgb(38, 50, 56); stroke-linecap: round; stroke-linejoin: round; transform-origin: 234.495px 159.515px;" id="el63p1ijen1aw" class="animable"></path><path d="M227.52,138.95s3.88,2.13,7.95,2.52" style="fill: none; stroke: rgb(38, 50, 56); stroke-linecap: round; stroke-linejoin: round; transform-origin: 231.495px 140.21px;" id="elxgu3e1fhg1" class="animable"></path><path d="M251.57,146.52s3.1,3.1,7.18,3.1" style="fill: none; stroke: rgb(38, 50, 56); stroke-linecap: round; stroke-linejoin: round; transform-origin: 255.16px 148.07px;" id="el6m2ejx0tewo" class="animable"></path><path d="M206.31,129.75s-2.83-14.4-8.23-11.31c-5.4,3.09-4.11,15.43-1.29,20.05,2.83,4.63,6.68,2.83,6.68,2.83" style="fill: rgb(255, 255, 255); stroke: rgb(38, 50, 56); stroke-linecap: round; stroke-linejoin: round; transform-origin: 200.331px 129.835px;" id="el9oolvysb2qs" class="animable"></path></g><path d="M207.53,123.75s-1.02,14.47-10.66,28.43c-9.65,13.96-6.09,22.85-3.55,25.64,2.54,2.79,3.81,2.28,3.81,2.28,0,0-5.08-4.57-4.32-10.41,.76-5.84,4.57-13.71,4.57-13.71,0,0-.76,12.95-.51,18.53,.25,5.59,3.3,6.6,3.3,6.6,0,0-6.09-18.79,2.28-30.97,8.38-12.19,5.08-26.4,5.08-26.4Z" style="fill: rgb(38, 50, 56); stroke: rgb(38, 50, 56); stroke-linecap: round; stroke-linejoin: round; transform-origin: 199.347px 152.425px;" id="elyb0lz7p7eqj" class="animable"></path></g><g id="eldx2vlygfrac" class="animable" style="transform-origin: 235.77px 260.205px;"><path d="M247.91,245.07l-21.33-2.94-2.95,33.21,21.33,2.94c2.5,.22,5.18-7.03,5.99-16.2,.82-9.17-.55-16.79-3.04-17.01Z" style="fill: rgb(16, 178, 61); stroke: rgb(38, 50, 56); stroke-linecap: round; stroke-linejoin: round; transform-origin: 237.409px 260.207px;" id="elria6sey81zp" class="animable"></path><path d="M229.62,259.14c-.82,9.17-3.5,16.43-5.99,16.2s-3.86-7.84-3.04-17.01c.82-9.17,3.5-16.43,5.99-16.2,2.5,.22,3.86,7.84,3.04,17.01Z" style="fill: rgb(38, 50, 56); stroke: rgb(38, 50, 56); stroke-linecap: round; stroke-linejoin: round; transform-origin: 225.105px 258.735px;" id="elilzbrcmkmc" class="animable"></path></g><g id="elv5mc83ri0ed" class="animable" style="transform-origin: 183.094px 282.254px;"><path d="M166.95,211.88s-19.18,7.26-26.15,24.4c-6.97,17.14-4.36,43,4.65,66.82,9.01,23.82,19.76,47.07,28.76,49.39,9.01,2.32,19.18-25.28,23.82-34.28s16.56-32.54,17.14-35.44,9.01-12.2,11.91-15.11,2.32-8.13,2.03-9.88c-.29-1.74-3.49-13.95-4.36-15.11-.87-1.16-2.32-.58-3.49-1.16-1.16-.58-11.91-3.49-11.91-3.49,0,0-4.94-2.61-7.26-1.45-2.32,1.16-2.91,2.91-2.91,2.91,0,0,.58,7.55-1.45,13.07-2.03,5.52-6.68,12.2-5.81,13.36,.87,1.16,6.39,9.01,6.39,9.01,0,0-5.52,11.04-12.49,19.47l-4.94-18.88" style="fill: rgb(255, 255, 255); stroke: rgb(38, 50, 56); stroke-linecap: round; stroke-linejoin: round; transform-origin: 183.094px 282.254px;" id="el032wrtx6hx3u" class="animable"></path><path d="M215.18,282.77c.08-.41,.33-.95,.69-1.58l-.15-.53c-10.54-.25-17.39-5.74-17.39-5.74,0,0-5.52,11.04-12.49,19.47h0l-3.95,6.13c6.5,9.24,14.67,11.55,19.02,12.11,5.46-10.73,13.79-27.44,14.28-29.85Z" style="fill: rgb(161, 161, 161); stroke: rgb(38, 50, 56); stroke-linecap: round; stroke-linejoin: round; transform-origin: 198.88px 293.775px;" id="eltwvxq2c3wr" class="animable"></path><path d="M181.89,300.52s-21.33,15.45-22.31,24.27" style="fill: none; stroke: rgb(38, 50, 56); stroke-linecap: round; stroke-linejoin: round; transform-origin: 170.735px 312.655px;" id="el1ajt7st4qr5" class="animable"></path><g id="el94i1i35tnno" class="animable" style="transform-origin: 216.48px 250.215px;"><path d="M221.28,241.52s2.91,11.33,2.91,16.56" style="fill: none; stroke: rgb(38, 50, 56); stroke-linecap: round; stroke-linejoin: round; transform-origin: 222.735px 249.8px;" id="el6i2d0rwq9nj" class="animable"></path><path d="M216.05,240.65s1.45,10.17,2.03,14.82" style="fill: none; stroke: rgb(38, 50, 56); stroke-linecap: round; stroke-linejoin: round; transform-origin: 217.065px 248.06px;" id="el71qccxra92" class="animable"></path><path d="M209.37,238.03s1.74,12.49,1.74,15.69" style="fill: none; stroke: rgb(38, 50, 56); stroke-linecap: round; stroke-linejoin: round; transform-origin: 210.24px 245.875px;" id="elzwuv6mcq8cf" class="animable"></path><path d="M210.72,257.26s-1.06,.89-1.95,1.95" style="fill: none; stroke: rgb(38, 50, 56); stroke-linecap: round; stroke-linejoin: round; transform-origin: 209.745px 258.235px;" id="elaf24c8p1t6" class="animable"></path><path d="M217.27,258.86s-1.06,.89-1.95,1.95" style="fill: none; stroke: rgb(38, 50, 56); stroke-linecap: round; stroke-linejoin: round; transform-origin: 216.295px 259.835px;" id="el5za80f2wr6" class="animable"></path><path d="M223.82,260.45s-1.06,.89-1.95,1.95" style="fill: none; stroke: rgb(38, 50, 56); stroke-linecap: round; stroke-linejoin: round; transform-origin: 222.845px 261.425px;" id="elkuikfw60q8r" class="animable"></path></g></g><g id="el0efh8mlw0wz" class="animable" style="transform-origin: 185.08px 251.98px;"><path d="M197.22,236.85l-21.33-2.94-2.95,33.21,21.33,2.94c2.5,.22,5.18-7.03,5.99-16.2,.82-9.17-.55-16.79-3.04-17.01Z" style="fill: rgb(16, 178, 61); stroke: rgb(38, 50, 56); stroke-linecap: round; stroke-linejoin: round; transform-origin: 186.719px 251.987px;" id="elf82kxemkzg5" class="animable"></path><path d="M178.93,250.91c-.82,9.17-3.5,16.43-5.99,16.2s-3.86-7.84-3.04-17.01c.82-9.17,3.5-16.43,5.99-16.2,2.49,.22,3.86,7.84,3.04,17.01Z" style="fill: rgb(38, 50, 56); stroke: rgb(38, 50, 56); stroke-linecap: round; stroke-linejoin: round; transform-origin: 174.415px 250.505px;" id="elup80od0src" class="animable"></path></g></g></g><g id="freepik--Table--inject-2" class="animable" style="transform-origin: 249.65px 460.54px;"><g id="elxkzrhm86es9" class="animable" style="transform-origin: 249.65px 460.54px;"><line x1="469.65" y1="460.54" x2="44.46" y2="460.54" style="fill: none; stroke: rgb(38, 50, 56); stroke-linecap: round; stroke-linejoin: round; transform-origin: 257.055px 460.54px;" id="ele1tgmy2n93l" class="animable"></line><line x1="29.65" y1="460.54" x2="38.11" y2="460.54" style="fill: none; stroke: rgb(38, 50, 56); stroke-linecap: round; stroke-linejoin: round; transform-origin: 33.88px 460.54px;" id="elbnrer2kp5fn" class="animable"></line></g></g><defs>     <filter id="active" height="200%">         <feMorphology in="SourceAlpha" result="DILATED" operator="dilate" radius="2"></feMorphology>                <feFlood flood-color="#32DFEC" flood-opacity="1" result="PINK"></feFlood>        <feComposite in="PINK" in2="DILATED" operator="in" result="OUTLINE"></feComposite>        <feMerge>            <feMergeNode in="OUTLINE"></feMergeNode>            <feMergeNode in="SourceGraphic"></feMergeNode>        </feMerge>    </filter>    <filter id="hover" height="200%">        <feMorphology in="SourceAlpha" result="DILATED" operator="dilate" radius="2"></feMorphology>                <feFlood flood-color="#ff0000" flood-opacity="0.5" result="PINK"></feFlood>        <feComposite in="PINK" in2="DILATED" operator="in" result="OUTLINE"></feComposite>        <feMerge>            <feMergeNode in="OUTLINE"></feMergeNode>            <feMergeNode in="SourceGraphic"></feMergeNode>        </feMerge>            <feColorMatrix type="matrix" values="0   0   0   0   0                0   1   0   0   0                0   0   0   0   0                0   0   0   1   0 "></feColorMatrix>    </filter></defs></svg>